<svg width="1200" height="630" viewBox="0 0 1200 630" fill="none" xmlns="http://www.w3.org/2000/svg"><rect width="1200" height="630" fill="#000000"/><g transform="translate(600, 265)" fill="#FFFFFF"><path d="M200 0C200 110.457 110.457 200 0 200C-110.457 200 -200 110.457 -200 0C-200 -110.457 -110.457 -200 0 -200C110.457 -200 200 -110.457 200 0Z" fill="#FFFFFF"/><path d="M180 0C180 99.4113 99.4113 180 0 180C-99.4113 180 -180 99.4113 -180 0C-180 -99.4113 -99.4113 -180 0 -180C99.4113 -180 180 -99.4113 180 0Z" fill="#000000"/><path d="M120 0C120 66.2742 66.2742 120 0 120C-66.2742 120 -120 66.2742 -120 0C-120 -66.2742 -66.2742 -120 0 -120C66.2742 -120 120 -66.2742 120 0Z" fill="#FFFFFF"/></g><text x="600" y="450" text-anchor="middle" font-family="sans-serif" font-size="52" font-weight="700" fill="white">shadcn/ui</text><text x="600" y="515" text-anchor="middle" font-family="sans-serif" font-size="32" font-weight="400" fill="#A1A1AA">Beautiful UI components</text></svg>
